<?xml version="1.0" encoding="UTF-8" standalone="no"?>
<!DOCTYPE svg PUBLIC "-//W3C//DTD SVG 1.1//EN" "http://www.w3.org/Graphics/SVG/1.1/DTD/svg11.dtd">
<svg version="1.1" xmlns="http://www.w3.org/2000/svg" xmlns:xlink="http://www.w3.org/1999/xlink" preserveAspectRatio="xMidYMid meet" viewBox="0 0 273 275" width="273" height="275"><defs><path d="M229.65 3.07C252.26 3.07 270.58 21.4 270.58 44C270.58 89.69 270.58 185.8 270.58 231.48C270.58 254.09 252.26 272.41 229.65 272.41C184.2 272.41 88.8 272.41 43.35 272.41C20.74 272.41 2.42 254.09 2.42 231.48C2.42 185.8 2.42 89.69 2.42 44C2.42 21.4 20.74 3.07 43.35 3.07C88.8 3.07 184.2 3.07 229.65 3.07Z" id="btkup2c6y"></path><path d="M184.78 103.57C197.8 118.88 217.24 153.49 216.83 183.7C216.39 215.78 195.23 243.35 179.13 253.23C147.88 272.39 95.71 273.94 71.27 234.1C57.1 211 60.37 183.67 81.57 133.8C97.58 96.15 82.5 49.4 75.49 30.43C73.21 24.27 65.74 17.56 65.12 9.33C133.63 50.9 157.92 71.99 184.78 103.57Z" id="b1lfJIvnl"></path></defs><g><g><g><g><use xlink:href="#btkup2c6y" opacity="1" fill-opacity="0" stroke="#ff0526" stroke-width="5" stroke-opacity="1"></use></g></g><g><use xlink:href="#b1lfJIvnl" opacity="1" fill="#ff0526" fill-opacity="1"></use></g></g></g></svg>